<?xml version="1.0" encoding="UTF-8" standalone="no"?>
<svg
   xmlns:dc="http://purl.org/dc/elements/1.1/"
   xmlns:cc="http://creativecommons.org/ns#"
   xmlns:rdf="http://www.w3.org/1999/02/22-rdf-syntax-ns#"
   xmlns:svg="http://www.w3.org/2000/svg"
   xmlns="http://www.w3.org/2000/svg"
   xmlns:sodipodi="http://sodipodi.sourceforge.net/DTD/sodipodi-0.dtd"
   xmlns:inkscape="http://www.inkscape.org/namespaces/inkscape"
   sodipodi:docname="helpdrawing.svg"
   inkscape:version="1.0 (4035a4fb49, 2020-05-01)"
   id="svg36"
   version="1.1"
   viewBox="0 0 210 297"
   height="297mm"
   width="210mm">
  <defs
     id="defs30">
    <rect
       id="rect944"
       height="15.501633"
       width="84.457171"
       y="210.87566"
       x="99.691534" />
    <rect
       id="rect914"
       height="20.221316"
       width="82.012447"
       y="253.72995"
       x="13.135505" />
    <rect
       id="rect893"
       height="15.501632"
       width="82.853554"
       y="131.49661"
       x="11.759859" />
  </defs>
  <sodipodi:namedview
     inkscape:window-maximized="0"
     inkscape:window-y="0"
     inkscape:window-x="1273"
     inkscape:window-height="1368"
     inkscape:window-width="1278"
     showgrid="false"
     inkscape:document-rotation="0"
     inkscape:current-layer="layer1"
     inkscape:document-units="mm"
     inkscape:cy="500.32622"
     inkscape:cx="357.3255"
     inkscape:zoom="0.98994949"
     inkscape:pageshadow="2"
     inkscape:pageopacity="0.0"
     borderopacity="1.0"
     bordercolor="#666666"
     pagecolor="#ffffff"
     id="base" />
  <metadata
     id="metadata33">
    <rdf:RDF>
      <cc:Work
         rdf:about="">
        <dc:format>image/svg+xml</dc:format>
        <dc:type
           rdf:resource="http://purl.org/dc/dcmitype/StillImage" />
        <dc:title></dc:title>
      </cc:Work>
    </rdf:RDF>
  </metadata>
  <g
     id="layer1"
     inkscape:groupmode="layer"
     inkscape:label="Layer 1">
    <path
       id="path879"
       d="m 193.50314,186.01959 c -7.3482,0 -14.56512,-1.33635 -21.9161,-1.33635 -1.48095,0 -3.0742,-0.18367 -4.54359,0 -1.78987,0.22373 -0.98113,0.3713 -2.93996,0.53454 -3.63315,0.30277 -7.29692,0.26727 -10.95805,0.26727 -1.87089,0 -3.74946,0.16938 -5.61266,0 -0.90481,-0.0823 -1.77421,-0.39977 -2.6727,-0.53454 -0.88543,-0.13282 -1.78179,-0.17817 -2.67269,-0.26727 -1.51453,-0.26727 -3.02906,-0.53454 -4.54358,-0.80181 -5.54771,-0.88763 -10.79002,-1.82783 -15.76891,-4.54358 -0.52465,-0.28618 -1.13187,-0.4349 -1.60361,-0.80181 -1.2131,-0.94353 -1.81523,-2.54132 -2.6727,-3.74177 -0.55045,-0.77064 -1.31386,-1.37226 -1.87088,-2.13816 -0.75573,-1.03912 -1.38243,-2.16811 -2.13816,-3.20724 -2.74449,-3.77367 -5.51679,-6.83279 -6.68174,-11.49258 -0.33053,-1.32213 -0.64258,-2.65557 -0.80181,-4.00905 -0.27948,-2.37564 -0.007,-4.8441 -0.53453,-7.21628 -0.16513,-0.74305 -0.56982,-1.41318 -0.80181,-2.13815 -0.75236,-2.35111 -1.27746,-4.65381 -2.13816,-6.94901 -1.85743,-4.95314 -3.739438,-9.9198 -5.345392,-14.96709 -1.337929,-4.20492 -1.65581,-8.69181 -3.207234,-12.82894 -1.097992,-2.92798 -8.056536,-2.58434 -10.423512,-3.20723 -2.371434,-0.62407 -4.747112,-1.62397 -7.216278,-1.87089 -0.975124,-0.0975 -1.960988,0.0445 -2.939965,0 -4.19414,-0.19067 -8.354774,-0.26727 -12.561668,-0.26727 -6.398699,0 1.323965,0.0994 -4.543581,-0.26727 -4.328612,-0.27054 -8.777369,0.1364 -13.096208,0.26727 -5.201414,0.15762 -10.31686,1.04007 -15.501633,1.33635 -2.413679,0.13792 -4.81657,0.009 -7.216276,0.26727 -2.386676,-0.1771 -4.364755,0.26727 -6.681738,0.26727"
       style="fill:none;stroke:#000000;stroke-width:0.264583px;stroke-linecap:butt;stroke-linejoin:miter;stroke-opacity:1" />
    <path
       id="path887"
       d="m 13.898015,106.37327 h 82.586284 v 83.65536 h 94.880681"
       style="fill:none;stroke:#00ffff;stroke-width:0.669;stroke-linecap:butt;stroke-linejoin:miter;stroke-miterlimit:4;stroke-dasharray:2.007, 2.007;stroke-dashoffset:0;stroke-opacity:1" />
    <path
       id="path889"
       d="M 13.898015,105.83873 V 94.078874 h 81.784476 v 10.423506"
       style="fill:none;stroke:#000000;stroke-width:0.665;stroke-linecap:butt;stroke-linejoin:miter;stroke-miterlimit:4;stroke-dasharray:none;stroke-opacity:1" />
    <path
       style="fill:none;stroke:#000000;stroke-width:0.665001;stroke-linecap:butt;stroke-linejoin:miter;stroke-miterlimit:4;stroke-dasharray:none;stroke-opacity:1"
       d="m 95.98906,189.05073 2e-6,11.75985 H 14.204583 l -4e-6,-10.4235"
       id="path889-9" />
    <path
       id="path889-9-1"
       d="m 96.511507,190.03351 -1.5e-5,-11.72906 92.952788,-3e-5 1e-5,10.39622"
       style="fill:none;stroke:#000000;stroke-width:0.708025;stroke-linecap:butt;stroke-linejoin:miter;stroke-miterlimit:4;stroke-dasharray:none;stroke-opacity:1" />
    <text
       id="text953"
       y="87.12986"
       x="38.486809"
       style="font-style:normal;font-weight:normal;font-size:10.5833px;line-height:1.25;font-family:sans-serif;fill:#000000;fill-opacity:1;stroke:none;stroke-width:0.264583"
       xml:space="preserve"><tspan
         style="font-size:7.05556px;stroke-width:0.264583"
         y="87.12986"
         x="38.486809"
         id="tspan951"
         sodipodi:role="line">Time Pre</tspan></text>
    <text
       id="text957"
       y="212.21202"
       x="40.090427"
       style="font-style:normal;font-weight:normal;font-size:10.5833px;line-height:1.25;font-family:sans-serif;fill:#000000;fill-opacity:1;stroke:none;stroke-width:0.264583"
       xml:space="preserve"><tspan
         id="tspan959"
         style="font-size:7.05556px;stroke-width:0.264583"
         y="212.21202"
         x="40.090427"
         sodipodi:role="line">Time Mid</tspan></text>
    <text
       id="text965"
       y="171.58704"
       x="129.89299"
       style="font-style:normal;font-weight:normal;font-size:10.5833px;line-height:1.25;font-family:sans-serif;fill:#000000;fill-opacity:1;stroke:none;stroke-width:0.264583"
       xml:space="preserve"><tspan
         style="font-size:7.05556px;stroke-width:0.264583"
         y="171.58704"
         x="129.89299"
         id="tspan963"
         sodipodi:role="line">Time Pos</tspan></text>
  </g>
</svg>
